<svg width="21" height="42" viewBox="0 0 21 42" fill="none" xmlns="http://www.w3.org/2000/svg">
<path d="M3.48438 0.000207525C3.93265 -0.00131458 4.37556 0.097589 4.78057 0.289659C5.18558 0.481725 5.5424 0.762075 5.8248 1.1101L20.3174 19.1084C20.7587 19.6452 21 20.3184 21 21.0132C21 21.708 20.7587 22.3813 20.3174 22.918L5.31471 40.9163C4.80541 41.5289 4.07354 41.9142 3.28012 41.9873C2.4867 42.0604 1.69671 41.8155 1.08395 41.3063C0.471193 40.7971 0.0858515 40.0655 0.0126989 39.2723C-0.0604537 38.4791 0.184576 37.6893 0.693883 37.0767L14.1063 20.9982L1.14396 4.91974C0.777047 4.47943 0.543974 3.94326 0.472323 3.37467C0.400671 2.80607 0.493437 2.22886 0.739649 1.71132C0.985861 1.19379 1.37521 0.757593 1.86163 0.454351C2.34805 0.151109 2.91118 -0.00648722 3.48438 0.000207525Z" fill="#F8F8F8"/>
</svg>
