<svg width="21" height="42" viewBox="0 0 21 42" fill="none" xmlns="http://www.w3.org/2000/svg">
<path d="M17.5156 41.9998C17.0673 42.0013 16.6244 41.9024 16.2194 41.7103C15.8144 41.5183 15.4576 41.2379 15.1752 40.8899L0.682587 22.8916C0.241262 22.3548 0 21.6816 0 20.9868C0 20.292 0.241262 19.6187 0.682587 19.082L15.6853 1.08365C16.1946 0.471063 16.9265 0.0858256 17.7199 0.0126933C18.5133 -0.060439 19.3033 0.184524 19.916 0.693691C20.5288 1.20286 20.9141 1.93452 20.9873 2.72773C21.0605 3.52093 20.8154 4.3107 20.3061 4.92329L6.8937 21.0018L19.856 37.0803C20.2229 37.5206 20.456 38.0567 20.5277 38.6253C20.5993 39.1939 20.5066 39.7711 20.2603 40.2887C20.0141 40.8062 19.6248 41.2424 19.1384 41.5457C18.6519 41.8489 18.0888 42.0065 17.5156 41.9998Z" fill="#F8F8F8"/>
</svg>
